<svg width="59" height="54" viewBox="0 0 59 54" fill="none" xmlns="http://www.w3.org/2000/svg">
<g filter="url(#filter0_f_361_3199)">
<path d="M29.4621 1.84851L31.4706 18.0054L41.8953 5.49924L34.8499 20.1771L50.3811 15.2923L36.5186 23.8311L52.2252 28.1186L35.9469 27.8073L46.8422 39.9057L33.3164 30.8431L35.9411 46.9114L29.4621 31.9749L22.983 46.9114L25.6078 30.8431L12.0819 39.9057L22.9772 27.8073L6.69892 28.1186L22.4055 23.8311L8.54306 15.2923L24.0742 20.1771L17.0288 5.49924L27.4535 18.0054L29.4621 1.84851Z" fill="#9524FF"/>
</g>
<g opacity="0.67" filter="url(#filter1_f_361_3199)">
<path d="M29.4621 1.84851L30.772 17.838L37.7696 3.40146L33.2151 18.7844L44.9552 7.85058L35.1512 20.5495L50.0483 14.595L36.319 22.8947L52.3612 22.7238L36.5608 25.5035L51.5814 31.1392L35.8438 28.0235L47.8142 38.7046L34.2649 30.1142L41.5685 44.3983L32.0374 31.4934L33.6878 47.4514L29.4621 31.9749L25.2363 47.4514L26.8867 31.4934L17.3556 44.3983L24.6592 30.1142L11.1099 38.7046L23.0803 28.0235L7.34275 31.1392L22.3633 25.5035L6.56295 22.7238L22.6051 22.8947L8.8758 14.595L23.7729 20.5495L13.9689 7.85058L25.709 18.7844L21.1545 3.40146L28.1521 17.838L29.4621 1.84851Z" fill="#9524FF"/>
</g>
<g filter="url(#filter2_f_361_3199)">
<path d="M29.4616 6.85779L30.9624 20.2267L40.0346 10.2932L33.3907 21.991L46.5691 19.2871L34.3183 24.8457L46.5691 30.4043L33.3907 27.7004L40.0346 39.3982L30.9624 29.4647L29.4616 42.8336L27.9607 29.4647L18.8885 39.3982L25.5324 27.7004L12.354 30.4043L24.6048 24.8457L12.354 19.2871L25.5324 21.991L18.8885 10.2932L27.9607 20.2267L29.4616 6.85779Z" fill="#9524FF"/>
</g>
<defs>
<filter id="filter0_f_361_3199" x="0.0960588" y="-4.75465" width="58.7327" height="58.2692" filterUnits="userSpaceOnUse" color-interpolation-filters="sRGB">
<feFlood flood-opacity="0" result="BackgroundImageFix"/>
<feBlend mode="normal" in="SourceGraphic" in2="BackgroundImageFix" result="shape"/>
<feGaussianBlur stdDeviation="3.30158" result="effect1_foregroundBlur_361_3199"/>
</filter>
<filter id="filter1_f_361_3199" x="2.91938" y="-1.79461" width="53.0851" height="52.8891" filterUnits="userSpaceOnUse" color-interpolation-filters="sRGB">
<feFlood flood-opacity="0" result="BackgroundImageFix"/>
<feBlend mode="normal" in="SourceGraphic" in2="BackgroundImageFix" result="shape"/>
<feGaussianBlur stdDeviation="1.82156" result="effect1_foregroundBlur_361_3199"/>
</filter>
<filter id="filter2_f_361_3199" x="10.3508" y="4.85407" width="38.2223" height="39.9833" filterUnits="userSpaceOnUse" color-interpolation-filters="sRGB">
<feFlood flood-opacity="0" result="BackgroundImageFix"/>
<feBlend mode="normal" in="SourceGraphic" in2="BackgroundImageFix" result="shape"/>
<feGaussianBlur stdDeviation="1.00186" result="effect1_foregroundBlur_361_3199"/>
</filter>
</defs>
</svg>
